<?xml version="1.0" encoding="utf-8"?>
<!-- Generator: Adobe Illustrator 27.5.0, SVG Export Plug-In . SVG Version: 6.00 Build 0)  -->
<svg version="1.1" xmlns="http://www.w3.org/2000/svg" xmlns:xlink="http://www.w3.org/1999/xlink" x="0px" y="0px"
	 viewBox="0 0 4975 4975" style="enable-background:new 0 0 4975 4975;" xml:space="preserve">
<g id="Layer_1">
	
		<radialGradient id="SVGID_1_" cx="2888.0044" cy="2347.9795" r="605.9425" gradientTransform="matrix(6.6166 0 0 5.9093 -16621.2695 -11387.415)" gradientUnits="userSpaceOnUse">
		<stop  offset="0" style="stop-color:#FFFFFF"/>
		<stop  offset="0.6057" style="stop-color:#FFFFFF"/>
		<stop  offset="0.6687" style="stop-color:#FBFBFB"/>
		<stop  offset="0.7343" style="stop-color:#EEEEEF"/>
		<stop  offset="0.8012" style="stop-color:#D9DADA"/>
		<stop  offset="0.8689" style="stop-color:#BCBDBE"/>
		<stop  offset="0.9365" style="stop-color:#97989A"/>
		<stop  offset="1" style="stop-color:#6D6E71"/>
	</radialGradient>
	<rect style="fill:url(#SVGID_1_);" width="4975" height="4975"/>
</g>
<g id="Isolation_Mode">
	<g>
		<g>
			
				<linearGradient id="SVGID_00000144310029681946749140000006625918271634435263_" gradientUnits="userSpaceOnUse" x1="2493.9636" y1="1348.6567" x2="2474.8835" y2="1644.3953">
				<stop  offset="0" style="stop-color:#8DC63F"/>
				<stop  offset="1" style="stop-color:#006838"/>
			</linearGradient>
			<path style="fill:url(#SVGID_00000144310029681946749140000006625918271634435263_);" d="M2909.306,1581.556
				c19.048-19.723,36.715-40.788,52.857-63.069l11.055-15.26c-147.259-73.863-313.392-115.646-489.226-116.195
				c-175.835,0.549-341.967,42.332-489.227,116.195l11.055,15.26c16.754,23.125,35.156,44.936,55.035,65.3
				c129.577-60.584,274.158-94.43,426.646-94.43C2638.094,1489.357,2780.971,1522.381,2909.306,1581.556z"/>
			
				<linearGradient id="SVGID_00000044858217470114403750000012777505364240855466_" gradientUnits="userSpaceOnUse" x1="2502.9109" y1="1349.2343" x2="2483.8311" y2="1644.9727">
				<stop  offset="0" style="stop-color:#8DC63F"/>
				<stop  offset="1" style="stop-color:#006838"/>
			</linearGradient>
			<path style="fill:url(#SVGID_00000044858217470114403750000012777505364240855466_);" d="M2208.449,1693.504l47.477,24.747
				c0,0,96.423,53.998,223.705,53.998c1.461,0,2.91-0.015,4.361-0.028c1.45,0.014,2.9,0.028,4.36,0.028
				c127.282,0,223.705-53.998,223.705-53.998l47.478-24.747c30.534-15.909,59.85-34.69,87.127-55.802
				c6.16-4.767,12.208-9.665,18.165-14.667c-115.705-49.973-243.277-77.678-377.326-77.678
				c-135.839,0-265.035,28.438-381.963,79.682c5.186,4.308,10.446,8.532,15.785,12.664
				C2148.599,1658.814,2177.915,1677.596,2208.449,1693.504z"/>
			
				<linearGradient id="SVGID_00000088094423844544956190000012616650007261476248_" gradientUnits="userSpaceOnUse" x1="2483.9917" y1="2218.9026" x2="2483.9917" y2="1705.5151">
				<stop  offset="0" style="stop-color:#006838"/>
				<stop  offset="1" style="stop-color:#8DC63F"/>
			</linearGradient>
			<path style="fill-rule:evenodd;clip-rule:evenodd;fill:url(#SVGID_00000088094423844544956190000012616650007261476248_);" d="
				M2267.763,1947.135c0-141.271,96.807-255.789,216.231-255.788c119.418-0.006,216.23,114.517,216.227,255.782
				c0.004,141.277-96.803,255.793-216.232,255.789C2364.574,2202.92,2267.762,2088.396,2267.763,1947.135z"/>
		</g>
		<g>
			
				<linearGradient id="SVGID_00000139251751766429853270000011205522215428589235_" gradientUnits="userSpaceOnUse" x1="1510.7456" y1="1923.1246" x2="1835.7625" y2="2122.6965">
				<stop  offset="0" style="stop-color:#414042"/>
				<stop  offset="1" style="stop-color:#000000"/>
			</linearGradient>
			<path style="fill:url(#SVGID_00000139251751766429853270000011205522215428589235_);" d="M1913.605,1668.46
				c-7.519-26.089-16.848-51.663-27.963-76.537l-7.688-17.203c-137.597,90.599-256.848,213.582-345.241,365.584
				c-87.441,152.552-134.323,317.318-143.985,481.781l18.743-1.944c25.484-2.644,50.713-6.975,75.548-12.912
				C1510.283,2101.111,1674.323,1834.342,1913.605,1668.46z"/>
			
				<linearGradient id="SVGID_00000041992484616955250230000006529455393010305947_" gradientUnits="userSpaceOnUse" x1="1511.4315" y1="1922.0076" x2="1836.4489" y2="2121.5798">
				<stop  offset="0" style="stop-color:#414042"/>
				<stop  offset="1" style="stop-color:#000000"/>
			</linearGradient>
			<path style="fill:url(#SVGID_00000041992484616955250230000006529455393010305947_);" d="M1660.354,2332.167l45.17-28.742
				c0,0,94.975-56.506,158.616-166.735c0.73-1.265,1.442-2.528,2.156-3.791c0.737-1.249,1.475-2.497,2.205-3.762
				c63.641-110.229,65.088-220.733,65.088-220.733l2.307-53.49c1.49-34.398-0.117-69.177-4.762-103.355
				c-1.097-8.08-2.383-16.125-3.814-24.14c-210.433,153.267-355.665,390.648-386.288,662.724
				c9.221-3.246,18.371-6.711,27.433-10.422C1600.387,2366.654,1631.31,2350.657,1660.354,2332.167z"/>
			
				<linearGradient id="SVGID_00000142137630337953158490000011451885043122594749_" gradientUnits="userSpaceOnUse" x1="2227.6567" y1="2359.2471" x2="1839.9178" y2="2102.6548">
				<stop  offset="0" style="stop-color:#000000"/>
				<stop  offset="1" style="stop-color:#414042"/>
			</linearGradient>
			<path style="fill:url(#SVGID_00000142137630337953158490000011451885043122594749_);" d="M1909.662,2407.615
				c-122.345-70.636-173.116-211.731-113.403-315.155c59.704-103.423,207.289-130.003,329.627-59.367
				c122.352,70.635,173.122,211.73,113.404,315.157C2179.583,2451.667,2031.997,2478.247,1909.662,2407.615z"/>
		</g>
		<g>
			
				<linearGradient id="SVGID_00000000906278870459548970000001523773421188451998_" gradientUnits="userSpaceOnUse" x1="1520.55" y1="3045.5908" x2="1868.3733" y2="2857.4238">
				<stop  offset="0" style="stop-color:#FFF200"/>
				<stop  offset="1" style="stop-color:#F7941D"/>
			</linearGradient>
			<path style="fill:url(#SVGID_00000000906278870459548970000001523773421188451998_);" d="M1481.75,2572.714
				c-23.291-5.361-46.92-9.304-70.771-11.778l-18.743-1.943c9.662,164.462,56.543,329.229,143.985,481.779
				c88.393,152.003,207.644,274.986,345.241,365.586l7.688-17.204c9.104-20.374,16.997-41.222,23.694-62.432
				C1669.88,3157.955,1504.671,2885.104,1481.75,2572.714z"/>
			
				<linearGradient id="SVGID_00000067215903888391237300000012187654106526218669_" gradientUnits="userSpaceOnUse" x1="1519.9741" y1="3044.5269" x2="1867.7983" y2="2856.3594">
				<stop  offset="0" style="stop-color:#FFF200"/>
				<stop  offset="1" style="stop-color:#F7941D"/>
			</linearGradient>
			<path style="fill:url(#SVGID_00000067215903888391237300000012187654106526218669_);" d="M1939.405,3126.162l-2.307-53.489
				c0,0-1.448-110.503-65.089-220.733c-0.73-1.265-1.468-2.513-2.205-3.762c-0.713-1.264-1.425-2.525-2.155-3.791
				c-63.641-110.229-158.616-166.734-158.616-166.734l-45.17-28.743c-29.044-18.489-59.967-34.486-91.889-47.554
				c-10.763-4.407-21.651-8.468-32.637-12.218c26.547,279.206,173.608,523.276,388.6,679.603c2.674-12.981,4.92-26.061,6.707-39.222
				C1939.288,3195.34,1940.896,3160.561,1939.405,3126.162z"/>
			
				<linearGradient id="SVGID_00000116952771921816554550000017471440569681493950_" gradientUnits="userSpaceOnUse" x1="2223.3596" y1="2624.1833" x2="1801.4083" y2="2909.2852">
				<stop  offset="0" style="stop-color:#F7941D"/>
				<stop  offset="1" style="stop-color:#FFF200"/>
			</linearGradient>
			<path style="fill-rule:evenodd;clip-rule:evenodd;fill:url(#SVGID_00000116952771921816554550000017471440569681493950_);" d="
				M2129.399,2947.98c-122.346,70.636-269.923,44.057-329.635-59.368c-59.715-103.417-8.941-244.519,113.4-315.148
				c122.348-70.643,269.925-44.063,329.636,59.368C2302.509,2736.247,2251.735,2877.351,2129.399,2947.98z"/>
		</g>
		<g>
			
				<linearGradient id="SVGID_00000155117024569342486100000000828427993425656252_" gradientUnits="userSpaceOnUse" x1="2491.0088" y1="3605.457" x2="2491.0088" y2="3200.6121">
				<stop  offset="0" style="stop-color:#BBC9E7"/>
				<stop  offset="1" style="stop-color:#0084C8"/>
			</linearGradient>
			<path style="fill:url(#SVGID_00000155117024569342486100000000828427993425656252_);" d="M2052.242,3407.842
				c-13.975,15.484-27.13,31.727-39.406,48.67l-11.054,15.261c147.26,73.863,313.392,115.646,489.226,116.194
				c175.835-0.549,341.968-42.332,489.228-116.194l-11.056-15.261c-12.9-17.807-26.787-34.827-41.562-51.018
				c-132.998,64.611-282.322,100.863-440.118,100.863C2331.624,3506.357,2184.013,3470.984,2052.242,3407.842z"/>
			
				<linearGradient id="SVGID_00000030483296307762854050000012668912142478124677_" gradientUnits="userSpaceOnUse" x1="2489.8267" y1="3605.457" x2="2489.8267" y2="3200.6113">
				<stop  offset="0" style="stop-color:#BBC9E7"/>
				<stop  offset="1" style="stop-color:#0084C8"/>
			</linearGradient>
			<path style="fill:url(#SVGID_00000030483296307762854050000012668912142478124677_);" d="M2766.551,3281.495l-47.477-24.747
				c0,0-96.423-53.998-223.705-53.998c-1.461,0-2.91,0.015-4.361,0.028c-1.449-0.014-2.899-0.028-4.359-0.028
				c-127.282,0-223.705,53.998-223.705,53.998l-47.478,24.747c-30.534,15.909-59.85,34.689-87.127,55.802
				c-11.687,9.043-23,18.527-33.943,28.407c119.842,54.37,252.936,84.653,393.104,84.653c141.988,0,276.711-31.083,397.758-86.791
				c-10.205-9.113-20.735-17.879-31.58-26.27C2826.401,3316.185,2797.085,3297.403,2766.551,3281.495z"/>
			
				<linearGradient id="SVGID_00000104678241437242809960000009666582217493964937_" gradientUnits="userSpaceOnUse" x1="2471.1255" y1="2191.5935" x2="2496.8062" y2="1703.6632" gradientTransform="matrix(-1 0 0 -1 4975 4975)">
				<stop  offset="0" style="stop-color:#0084C8"/>
				<stop  offset="1" style="stop-color:#BBC9E7"/>
			</linearGradient>
			<path style="fill-rule:evenodd;clip-rule:evenodd;fill:url(#SVGID_00000104678241437242809960000009666582217493964937_);" d="
				M2707.237,3027.865c0,141.271-96.808,255.787-216.231,255.787c-119.419,0.006-216.23-114.516-216.227-255.782
				c-0.004-141.276,96.802-255.793,216.232-255.788C2610.426,2772.08,2707.238,2886.604,2707.237,3027.865z"/>
		</g>
		<g>
			
				<linearGradient id="SVGID_00000181797975364175106720000007418847533865474446_" gradientUnits="userSpaceOnUse" x1="3456.4363" y1="3036.719" x2="3097.2085" y2="2848.552">
				<stop  offset="0" style="stop-color:#F7941D"/>
				<stop  offset="1" style="stop-color:#EF4136"/>
			</linearGradient>
			<path style="fill:url(#SVGID_00000181797975364175106720000007418847533865474446_);" d="M3567.529,2554.859
				c-24.923,2.586-49.603,6.779-73.906,12.516c-21.291,312.705-185.119,586.266-427.029,756.23
				c6.494,20.191,14.084,40.045,22.764,59.471l7.688,17.204c137.598-90.599,256.849-213.582,345.24-365.585
				c87.442-152.552,134.324-317.318,143.986-481.78L3567.529,2554.859z"/>
			
				<linearGradient id="SVGID_00000063601784640166755770000014195529550221216129_" gradientUnits="userSpaceOnUse" x1="3456.592" y1="3036.4229" x2="3097.363" y2="2848.2551">
				<stop  offset="0" style="stop-color:#F7941D"/>
				<stop  offset="1" style="stop-color:#EF4136"/>
			</linearGradient>
			<path style="fill:url(#SVGID_00000063601784640166755770000014195529550221216129_);" d="M3314.646,2642.832l-45.17,28.743
				c0,0-94.976,56.506-158.616,166.735c-0.73,1.264-1.442,2.527-2.156,3.79c-0.736,1.249-1.474,2.497-2.204,3.762
				c-63.641,110.229-65.089,220.733-65.089,220.733l-2.307,53.49c-1.49,34.398,0.117,69.176,4.762,103.355
				c1.927,14.189,4.381,28.283,7.338,42.263c214.028-157.39,359.86-402.104,384.941-681.62c-9.96,3.462-19.834,7.191-29.609,11.194
				C3374.613,2608.346,3343.689,2624.343,3314.646,2642.832z"/>
			
				<linearGradient id="SVGID_00000182492074301464707000000015398933363191063950_" gradientUnits="userSpaceOnUse" x1="3175.2571" y1="2906.9685" x2="2759.0076" y2="2616.1643">
				<stop  offset="0" style="stop-color:#F7941D"/>
				<stop  offset="1" style="stop-color:#EF4136"/>
			</linearGradient>
			<path style="fill-rule:evenodd;clip-rule:evenodd;fill:url(#SVGID_00000182492074301464707000000015398933363191063950_);" d="
				M3065.339,2567.385c122.345,70.635,173.114,211.73,113.402,315.155c-59.704,103.423-207.288,130.003-329.627,59.366
				c-122.351-70.635-173.122-211.729-113.403-315.156C2795.417,2523.332,2943.004,2496.753,3065.339,2567.385z"/>
		</g>
		<g>
			
				<linearGradient id="SVGID_00000093158116115066803170000008320644997819707278_" gradientUnits="userSpaceOnUse" x1="3415.1428" y1="1943.9299" x2="3113.8428" y2="2133.3186">
				<stop  offset="0" style="stop-color:#EE2A7B"/>
				<stop  offset="1" style="stop-color:#9E1F63"/>
			</linearGradient>
			<path style="fill:url(#SVGID_00000093158116115066803170000008320644997819707278_);" d="M3491.473,2401.876
				c23.864,5.573,48.09,9.65,72.548,12.188l18.743,1.943c-9.662-164.462-56.543-329.229-143.985-481.78
				c-88.392-152.003-207.644-274.987-345.241-365.585l-7.688,17.204c-11.551,25.85-21.176,52.456-28.842,79.611
				C3297.264,1830.15,3462.605,2096.145,3491.473,2401.876z"/>
			
				<linearGradient id="SVGID_00000089573460066405058130000015564452175030592911_" gradientUnits="userSpaceOnUse" x1="3415.0601" y1="1943.7986" x2="3113.7598" y2="2133.1875">
				<stop  offset="0" style="stop-color:#EE2A7B"/>
				<stop  offset="1" style="stop-color:#9E1F63"/>
			</linearGradient>
			<path style="fill:url(#SVGID_00000089573460066405058130000015564452175030592911_);" d="M3035.595,1848.837l2.308,53.489
				c0,0,1.447,110.504,65.088,220.733c0.73,1.265,1.468,2.513,2.205,3.762c0.714,1.263,1.426,2.525,2.155,3.79
				c63.642,110.229,158.616,166.735,158.616,166.735l45.17,28.743c29.045,18.489,59.967,34.487,91.89,47.554
				c10.018,4.102,20.141,7.912,30.353,11.445c-32.05-271.708-178.458-508.39-389.777-660.608c-1.207,6.976-2.291,13.976-3.244,21
				C3035.711,1779.66,3034.104,1814.439,3035.595,1848.837z"/>
			
				<linearGradient id="SVGID_00000127754175086832468840000015918849957337025462_" gradientUnits="userSpaceOnUse" x1="3141.2542" y1="2096.3979" x2="2742.1108" y2="2347.2881">
				<stop  offset="0" style="stop-color:#EE2A7B"/>
				<stop  offset="1" style="stop-color:#9E1F63"/>
			</linearGradient>
			<path style="fill-rule:evenodd;clip-rule:evenodd;fill:url(#SVGID_00000127754175086832468840000015918849957337025462_);" d="
				M2845.602,2027.019c122.345-70.636,269.922-44.056,329.634,59.368c59.714,103.417,8.942,244.519-113.4,315.149
				c-122.348,70.642-269.925,44.063-329.636-59.368C2672.49,2238.752,2723.266,2097.648,2845.602,2027.019z"/>
		</g>
	</g>
	
		<radialGradient id="SVGID_00000071519160224179956850000008272235213409552561_" cx="2491.0088" cy="54532.4336" r="1629.7543" gradientTransform="matrix(1 0 0 0.1803 0 -5684.2993)" gradientUnits="userSpaceOnUse">
		<stop  offset="0" style="stop-color:#808285"/>
		<stop  offset="0.1191" style="stop-color:#9D9FA2"/>
		<stop  offset="0.2679" style="stop-color:#BEC0C2"/>
		<stop  offset="0.4136" style="stop-color:#D9DADC"/>
		<stop  offset="0.5536" style="stop-color:#ECEDEE"/>
		<stop  offset="0.6852" style="stop-color:#F8F9F9"/>
		<stop  offset="0.8" style="stop-color:#FFFFFF"/>
	</radialGradient>
	
		<ellipse style="fill:url(#SVGID_00000071519160224179956850000008272235213409552561_);" cx="2491.01" cy="4147.897" rx="1745.711" ry="349.45"/>
</g>
<g id="Layer_5">
</g>
</svg>
